<svg xmlns="http://www.w3.org/2000/svg" version="1.1" xmlns:xlink="http://www.w3.org/1999/xlink" xmlns:svgjs="http://svgjs.dev/svgjs" viewBox="0 0 2400 800"><defs><linearGradient x1="50%" y1="0%" x2="50%" y2="100%" id="sssurf-grad"><stop stop-color="hsl(162, 100%, 58%)" stop-opacity="1" offset="0%"></stop><stop stop-color="hsl(270, 73%, 53%)" stop-opacity="1" offset="100%"></stop></linearGradient></defs><g fill="url(#sssurf-grad)" transform="matrix(1,0,0,1,10.8282470703125,224.62162017822266)"><path d="M-10,10C33.75,13.541666666666668,114.58333333333334,31.791666666666668,200,27C285.41666666666663,22.208333333333332,316.66666666666663,-12.791666666666666,400,-13C483.33333333333337,-13.208333333333334,516.6666666666666,29.333333333333332,600,26C683.3333333333334,22.666666666666668,716.6666666666666,-33.375,800,-29C883.3333333333334,-24.625,916.6666666666666,40.75,1000,47C1083.3333333333333,53.25,1116.6666666666667,3.916666666666667,1200,1C1283.3333333333333,-1.916666666666667,1316.6666666666667,31.958333333333332,1400,33C1483.3333333333333,34.041666666666664,1516.6666666666667,5.791666666666667,1600,6C1683.3333333333333,6.208333333333333,1716.6666666666667,36.916666666666664,1800,34C1883.3333333333333,31.083333333333332,1916.6666666666667,-11.958333333333332,2000,-8C2083.3333333333335,-4.041666666666667,2118.75,49.25,2200,53C2281.25,56.75,2296.25,-62.29166666666667,2390,10C2483.75,82.29166666666667,3252.0833333333335,214.58333333333331,2650,400C2047.9166666666665,585.4166666666667,156.25,795.8333333333334,-500,900" transform="matrix(1,0,0,1,0,35)" opacity="0.05"></path><path d="M-10,10C33.75,13.541666666666668,114.58333333333334,31.791666666666668,200,27C285.41666666666663,22.208333333333332,316.66666666666663,-12.791666666666666,400,-13C483.33333333333337,-13.208333333333334,516.6666666666666,29.333333333333332,600,26C683.3333333333334,22.666666666666668,716.6666666666666,-33.375,800,-29C883.3333333333334,-24.625,916.6666666666666,40.75,1000,47C1083.3333333333333,53.25,1116.6666666666667,3.916666666666667,1200,1C1283.3333333333333,-1.916666666666667,1316.6666666666667,31.958333333333332,1400,33C1483.3333333333333,34.041666666666664,1516.6666666666667,5.791666666666667,1600,6C1683.3333333333333,6.208333333333333,1716.6666666666667,36.916666666666664,1800,34C1883.3333333333333,31.083333333333332,1916.6666666666667,-11.958333333333332,2000,-8C2083.3333333333335,-4.041666666666667,2118.75,49.25,2200,53C2281.25,56.75,2296.25,-62.29166666666667,2390,10C2483.75,82.29166666666667,3252.0833333333335,214.58333333333331,2650,400C2047.9166666666665,585.4166666666667,156.25,795.8333333333334,-500,900" transform="matrix(1,0,0,1,0,70)" opacity="0.21"></path><path d="M-10,10C33.75,13.541666666666668,114.58333333333334,31.791666666666668,200,27C285.41666666666663,22.208333333333332,316.66666666666663,-12.791666666666666,400,-13C483.33333333333337,-13.208333333333334,516.6666666666666,29.333333333333332,600,26C683.3333333333334,22.666666666666668,716.6666666666666,-33.375,800,-29C883.3333333333334,-24.625,916.6666666666666,40.75,1000,47C1083.3333333333333,53.25,1116.6666666666667,3.916666666666667,1200,1C1283.3333333333333,-1.916666666666667,1316.6666666666667,31.958333333333332,1400,33C1483.3333333333333,34.041666666666664,1516.6666666666667,5.791666666666667,1600,6C1683.3333333333333,6.208333333333333,1716.6666666666667,36.916666666666664,1800,34C1883.3333333333333,31.083333333333332,1916.6666666666667,-11.958333333333332,2000,-8C2083.3333333333335,-4.041666666666667,2118.75,49.25,2200,53C2281.25,56.75,2296.25,-62.29166666666667,2390,10C2483.75,82.29166666666667,3252.0833333333335,214.58333333333331,2650,400C2047.9166666666665,585.4166666666667,156.25,795.8333333333334,-500,900" transform="matrix(1,0,0,1,0,105)" opacity="0.37"></path><path d="M-10,10C33.75,13.541666666666668,114.58333333333334,31.791666666666668,200,27C285.41666666666663,22.208333333333332,316.66666666666663,-12.791666666666666,400,-13C483.33333333333337,-13.208333333333334,516.6666666666666,29.333333333333332,600,26C683.3333333333334,22.666666666666668,716.6666666666666,-33.375,800,-29C883.3333333333334,-24.625,916.6666666666666,40.75,1000,47C1083.3333333333333,53.25,1116.6666666666667,3.916666666666667,1200,1C1283.3333333333333,-1.916666666666667,1316.6666666666667,31.958333333333332,1400,33C1483.3333333333333,34.041666666666664,1516.6666666666667,5.791666666666667,1600,6C1683.3333333333333,6.208333333333333,1716.6666666666667,36.916666666666664,1800,34C1883.3333333333333,31.083333333333332,1916.6666666666667,-11.958333333333332,2000,-8C2083.3333333333335,-4.041666666666667,2118.75,49.25,2200,53C2281.25,56.75,2296.25,-62.29166666666667,2390,10C2483.75,82.29166666666667,3252.0833333333335,214.58333333333331,2650,400C2047.9166666666665,585.4166666666667,156.25,795.8333333333334,-500,900" transform="matrix(1,0,0,1,0,140)" opacity="0.53"></path><path d="M-10,10C33.75,13.541666666666668,114.58333333333334,31.791666666666668,200,27C285.41666666666663,22.208333333333332,316.66666666666663,-12.791666666666666,400,-13C483.33333333333337,-13.208333333333334,516.6666666666666,29.333333333333332,600,26C683.3333333333334,22.666666666666668,716.6666666666666,-33.375,800,-29C883.3333333333334,-24.625,916.6666666666666,40.75,1000,47C1083.3333333333333,53.25,1116.6666666666667,3.916666666666667,1200,1C1283.3333333333333,-1.916666666666667,1316.6666666666667,31.958333333333332,1400,33C1483.3333333333333,34.041666666666664,1516.6666666666667,5.791666666666667,1600,6C1683.3333333333333,6.208333333333333,1716.6666666666667,36.916666666666664,1800,34C1883.3333333333333,31.083333333333332,1916.6666666666667,-11.958333333333332,2000,-8C2083.3333333333335,-4.041666666666667,2118.75,49.25,2200,53C2281.25,56.75,2296.25,-62.29166666666667,2390,10C2483.75,82.29166666666667,3252.0833333333335,214.58333333333331,2650,400C2047.9166666666665,585.4166666666667,156.25,795.8333333333334,-500,900" transform="matrix(1,0,0,1,0,175)" opacity="0.68"></path><path d="M-10,10C33.75,13.541666666666668,114.58333333333334,31.791666666666668,200,27C285.41666666666663,22.208333333333332,316.66666666666663,-12.791666666666666,400,-13C483.33333333333337,-13.208333333333334,516.6666666666666,29.333333333333332,600,26C683.3333333333334,22.666666666666668,716.6666666666666,-33.375,800,-29C883.3333333333334,-24.625,916.6666666666666,40.75,1000,47C1083.3333333333333,53.25,1116.6666666666667,3.916666666666667,1200,1C1283.3333333333333,-1.916666666666667,1316.6666666666667,31.958333333333332,1400,33C1483.3333333333333,34.041666666666664,1516.6666666666667,5.791666666666667,1600,6C1683.3333333333333,6.208333333333333,1716.6666666666667,36.916666666666664,1800,34C1883.3333333333333,31.083333333333332,1916.6666666666667,-11.958333333333332,2000,-8C2083.3333333333335,-4.041666666666667,2118.75,49.25,2200,53C2281.25,56.75,2296.25,-62.29166666666667,2390,10C2483.75,82.29166666666667,3252.0833333333335,214.58333333333331,2650,400C2047.9166666666665,585.4166666666667,156.25,795.8333333333334,-500,900" transform="matrix(1,0,0,1,0,210)" opacity="0.84"></path><path d="M-10,10C33.75,13.541666666666668,114.58333333333334,31.791666666666668,200,27C285.41666666666663,22.208333333333332,316.66666666666663,-12.791666666666666,400,-13C483.33333333333337,-13.208333333333334,516.6666666666666,29.333333333333332,600,26C683.3333333333334,22.666666666666668,716.6666666666666,-33.375,800,-29C883.3333333333334,-24.625,916.6666666666666,40.75,1000,47C1083.3333333333333,53.25,1116.6666666666667,3.916666666666667,1200,1C1283.3333333333333,-1.916666666666667,1316.6666666666667,31.958333333333332,1400,33C1483.3333333333333,34.041666666666664,1516.6666666666667,5.791666666666667,1600,6C1683.3333333333333,6.208333333333333,1716.6666666666667,36.916666666666664,1800,34C1883.3333333333333,31.083333333333332,1916.6666666666667,-11.958333333333332,2000,-8C2083.3333333333335,-4.041666666666667,2118.75,49.25,2200,53C2281.25,56.75,2296.25,-62.29166666666667,2390,10C2483.75,82.29166666666667,3252.0833333333335,214.58333333333331,2650,400C2047.9166666666665,585.4166666666667,156.25,795.8333333333334,-500,900" transform="matrix(1,0,0,1,0,245)" opacity="1"></path></g></svg>